<svg width="582" height="144" viewBox="0 0 582 144" fill="none" xmlns="http://www.w3.org/2000/svg">
<path d="M5.4 96.2008H40.2C41.6667 96.2008 42.9333 96.7341 44 97.8008C45.0667 98.8674 45.6 100.134 45.6 101.601V136.401C45.6 137.867 45.0667 139.134 44 140.201C42.9333 141.267 41.6667 141.801 40.2 141.801H5.4C3.93333 141.801 2.66667 141.267 1.6 140.201C0.533334 139.134 6.85453e-07 137.867 6.85453e-07 136.401V101.601C6.85453e-07 100.134 0.533334 98.8674 1.6 97.8008C2.66667 96.7341 3.93333 96.2008 5.4 96.2008ZM5.4 1.80077H40.2C41.6667 1.80077 42.9333 2.33411 44 3.40077C45.0667 4.46744 45.6 5.73411 45.6 7.20077V82.8008C45.6 84.2674 45.0667 85.5341 44 86.6008C42.9333 87.6674 41.6667 88.2008 40.2 88.2008H5.4C3.93333 88.2008 2.66667 87.6674 1.6 86.6008C0.533334 85.5341 6.85453e-07 84.2674 6.85453e-07 82.8008V7.20077C6.85453e-07 5.73411 0.533334 4.46744 1.6 3.40077C2.66667 2.33411 3.93333 1.80077 5.4 1.80077ZM114.378 91.8008V64.6008H65.9781C64.5115 64.6008 63.2448 64.0674 62.1781 63.0008C61.1115 61.9341 60.5781 60.6674 60.5781 59.2008V5.40077C60.5781 3.93411 61.1115 2.66744 62.1781 1.60077C63.2448 0.534105 64.5115 0.000771046 65.9781 0.000771046H96.5781C98.0448 0.000771046 99.3115 0.534105 100.378 1.60077C101.445 2.66744 101.978 3.93411 101.978 5.40077V27.6008H155.378C156.845 27.6008 158.111 28.1341 159.178 29.2008C160.245 30.2674 160.778 31.5341 160.778 33.0008V91.2008C160.778 106.934 155.578 119.667 145.178 129.401C134.778 139.001 120.311 143.801 101.778 143.801H95.1781C93.7115 143.801 92.4448 143.267 91.3781 142.201C90.3115 141.134 89.7781 139.867 89.7781 138.401V112.201C89.7781 110.734 90.3115 109.467 91.3781 108.401C92.4448 107.334 93.7115 106.801 95.1781 106.801H101.578C105.311 106.801 108.378 105.601 110.778 103.201C113.178 100.801 114.378 97.0008 114.378 91.8008ZM185.259 27.6008H237.659C257.659 27.6008 272.526 31.4008 282.259 39.0008C291.993 46.4674 296.859 59.5341 296.859 78.2008V136.401C296.859 137.867 296.326 139.134 295.259 140.201C294.193 141.267 292.926 141.801 291.459 141.801H257.659C256.193 141.801 254.926 141.334 253.859 140.401C252.793 139.334 252.259 138.067 252.259 136.601V77.6008C252.259 67.6008 247.326 62.6008 237.459 62.6008H224.459V136.401C224.459 137.867 223.926 139.134 222.859 140.201C221.793 141.267 220.526 141.801 219.059 141.801H185.259C183.793 141.801 182.526 141.267 181.459 140.201C180.393 139.134 179.859 137.867 179.859 136.401V33.0008C179.859 31.5341 180.393 30.2674 181.459 29.2008C182.526 28.1341 183.793 27.6008 185.259 27.6008ZM317.197 27.6008H386.797C406.397 27.6008 421.13 31.6008 430.997 39.6008C440.997 47.4674 445.997 60.3341 445.997 78.2008V136.401C445.997 137.867 445.464 139.134 444.397 140.201C443.33 141.267 442.064 141.801 440.597 141.801H406.797C405.33 141.801 404.064 141.334 402.997 140.401C401.93 139.334 401.397 138.067 401.397 136.601V77.6008C401.397 67.6008 396.464 62.6008 386.597 62.6008H372.597V136.401C372.597 137.867 372.064 139.134 370.997 140.201C369.93 141.267 368.664 141.801 367.197 141.801H317.197C315.73 141.801 314.464 141.267 313.397 140.201C312.33 139.134 311.797 137.867 311.797 136.401V114.201C311.797 112.734 312.33 111.467 313.397 110.401C314.464 109.334 315.73 108.801 317.197 108.801H327.997V62.6008H317.197C315.73 62.6008 314.464 62.0674 313.397 61.0008C312.33 59.9341 311.797 58.6674 311.797 57.2008V33.0008C311.797 31.5341 312.33 30.2674 313.397 29.2008C314.464 28.1341 315.73 27.6008 317.197 27.6008ZM509.616 136.401C509.616 137.867 509.082 139.134 508.016 140.201C506.949 141.267 505.682 141.801 504.216 141.801H470.416C468.949 141.801 467.682 141.267 466.616 140.201C465.549 139.134 465.016 137.867 465.016 136.401V76.0008C465.016 74.5341 465.549 73.2674 466.616 72.2008C467.682 71.1341 468.949 70.6008 470.416 70.6008H504.216C505.682 70.6008 506.949 71.1341 508.016 72.2008C509.082 73.2674 509.616 74.5341 509.616 76.0008V136.401ZM470.416 27.6008H521.816C541.416 27.6008 556.149 31.6008 566.016 39.6008C576.016 47.4674 581.016 60.3341 581.016 78.2008V136.401C581.016 137.867 580.482 139.134 579.416 140.201C578.349 141.267 577.082 141.801 575.616 141.801H541.816C540.349 141.801 539.082 141.334 538.016 140.401C536.949 139.334 536.416 138.067 536.416 136.601V77.6008C536.416 67.6008 531.482 62.6008 521.616 62.6008H470.416C468.949 62.6008 467.682 62.0674 466.616 61.0008C465.549 59.9341 465.016 58.6674 465.016 57.2008V33.0008C465.016 31.5341 465.549 30.2674 466.616 29.2008C467.682 28.1341 468.949 27.6008 470.416 27.6008Z" fill="#F2F7FF"/>
</svg>
