<svg width="120" height="34" viewBox="0 0 120 34" fill="none" xmlns="http://www.w3.org/2000/svg">
<g clip-path="url(#clip0_459_7808)">
<mask id="mask0_459_7808" style="mask-type:luminance" maskUnits="userSpaceOnUse" x="0" y="0" width="120" height="34">
<path d="M120 0H0V34H120V0Z" fill="white"/>
</mask>
<g mask="url(#mask0_459_7808)">
<path fill-rule="evenodd" clip-rule="evenodd" d="M28.0998 5.5C28.0998 5.5 28.3998 7.2 27.4998 11.4L25.7998 19.6H31.5998L33.2998 11.4C34.0998 7.6 33.8998 5.5 33.8998 5.5H28.0998Z" fill="#00A651"/>
<path fill-rule="evenodd" clip-rule="evenodd" d="M69.3998 5.5L68.1998 11.3H72.8998C74.8998 11.3 76.0998 12.3 74.9998 17.7C73.9998 22.5 72.3998 24.1 70.2998 24.1H65.4998L64.2998 29.9H71.6998C75.7998 29.9 79.1998 26.1 80.9998 17.7C82.8998 8.5 80.1998 5.5 76.7998 5.5H69.3998Z" fill="#00A651"/>
<path fill-rule="evenodd" clip-rule="evenodd" d="M36.6998 1C36.6998 1.6 36.6998 2.2 36.5998 2.7L36.0998 5.5C35.5998 9 36.3998 11.3 40.0998 11.3H41.8998C45.0998 11.1 43.6998 13.2 42.5998 15.9L37.2998 29.9H43.3998L49.2998 14.1C51.4998 8.2 49.3998 5.5 47.0998 5.5C45.3998 5.5 44.6998 5.5 43.2998 5.5C41.7998 5.5 41.9998 4.1 42.2998 2.9C42.3998 2.2 42.3998 1.4 42.3998 1H36.6998Z" fill="#00A651"/>
<path fill-rule="evenodd" clip-rule="evenodd" d="M6.2 21.6999C5.1 26.5999 3 25.3999 1.5 25.0999C1.1 26.8999 0.5 29.6999 0.5 29.6999C2.1 29.9999 3.7 30.0999 5.2 30.0999C8.3 29.9999 10.5 28.5999 12 21.1999L14.1 11.2999H16.2C18.8 11.2999 18.7 12.3999 18.1 15.7999L15.2 29.8999H21L24.2 14.4999C26 6.1999 23.4 5.3999 19.4 5.3999H9.6L6.2 21.6999Z" fill="#00A651"/>
<path fill-rule="evenodd" clip-rule="evenodd" d="M52.6002 1C52.6002 1.6 52.6002 2.2 52.5002 2.7C52.3002 3.9 52.0002 5.5 52.0002 5.5C51.5002 9 52.3002 11.3 56.0002 11.3H57.8002C61.0002 11.1 59.6002 13.2 58.5002 15.9L53.2002 29.9H59.3002L65.2002 14.1C67.4002 8.2 65.3002 5.5 63.0002 5.5C61.3002 5.5 60.6002 5.5 59.2002 5.5C57.7002 5.5 57.9002 4.1 58.2002 2.9C58.3002 2.2 58.3002 1.4 58.3002 1H52.6002Z" fill="#00A651"/>
<path fill-rule="evenodd" clip-rule="evenodd" d="M102.4 1.59996L94.7998 7.89996C94.4998 8.19996 94.0998 8.29996 93.5998 8.29996H88.5998C88.1998 8.29996 87.8998 8.59996 87.7998 8.99996L86.7998 13.7C86.7998 13.9 86.7998 14 86.8998 14.2C86.9998 14.3 87.1998 14.4 87.2998 14.4H96.2998C96.8998 14.4 97.3998 14.2 97.8998 13.9L103.3 9.39996C103.5 9.29996 103.7 9.19996 103.9 9.19996C104.2 9.19996 104.4 9.29996 104.6 9.49996L108.2 13.7C108.6 14.2 109.3 14.5 109.9 14.4H118C118.4 14.4 118.7 14.1 118.8 13.7L119.8 8.99996C119.8 8.79996 119.8 8.69996 119.7 8.49996C119.6 8.39996 119.4 8.29996 119.3 8.29996H112.5C112.2 8.29996 112 8.19996 111.8 7.99996L106.4 1.69996C105.9 1.09996 105.2 0.799956 104.5 0.799956C103.7 0.699956 102.9 0.999956 102.4 1.59996Z" fill="#00AEEF"/>
<path fill-rule="evenodd" clip-rule="evenodd" d="M86.0998 19.7999C85.6998 19.7999 85.3998 20.0999 85.2998 20.4999L84.2998 25.1999C84.2998 25.3999 84.2998 25.4999 84.3998 25.6999C84.4998 25.7999 84.6998 25.8999 84.7998 25.8999H91.5998C91.8998 25.8999 92.0998 25.9999 92.2998 26.1999L97.6998 32.4999C98.1998 33.0999 98.8998 33.3999 99.5998 33.3999C100.4 33.3999 101.2 33.0999 101.7 32.4999L109.2 26.1999C109.5 25.8999 109.9 25.7999 110.4 25.7999H115.4C115.8 25.7999 116.1 25.4999 116.2 25.0999L117.2 20.4999C117.2 20.2999 117.2 20.1999 117.1 19.9999C117 19.8999 116.8 19.7999 116.7 19.7999H107.7C107.1 19.7999 106.6 19.8999 106.1 20.2999L100.7 24.7999C100.5 24.8999 100.3 24.9999 100.1 24.9999C99.8998 24.9999 99.5998 24.8999 99.3998 24.6999L95.7998 20.4999C95.3998 19.9999 94.6998 19.6999 94.0998 19.7999H86.0998Z" fill="#00A651"/>
</g>
</g>
<defs>
<clipPath id="clip0_459_7808">
<rect width="120" height="34" fill="white"/>
</clipPath>
</defs>
</svg>
